<?xml version="1.0" standalone="no"?>
<!DOCTYPE svg PUBLIC "-//W3C//DTD SVG 20010904//EN"
 "http://www.w3.org/TR/2001/REC-SVG-20010904/DTD/svg10.dtd">
<svg version="1.0" xmlns="http://www.w3.org/2000/svg"
 width="588.000000pt" height="588.000000pt" viewBox="0 0 588.000000 588.000000"
 preserveAspectRatio="xMidYMid meet">

<g transform="translate(0.000000,588.000000) scale(0.100000,-0.100000)"
fill="#000000" stroke="none">
<path d="M2972 5548 c-16 -16 -15 -33 4 -48 22 -19 54 12 38 37 -14 22 -27 26
-42 11z"/>
<path d="M2967 5444 c-4 -4 -7 -168 -7 -364 0 -376 2 -390 44 -374 15 6 16 41
14 373 -3 360 -3 366 -23 369 -12 2 -24 0 -28 -4z"/>
<path d="M2234 5407 c-5 -14 260 -655 280 -675 15 -16 46 -5 46 16 0 17 -257
640 -273 660 -12 16 -46 16 -53 -1z"/>
<path d="M3620 5305 c-10 -12 -10 -18 0 -30 7 -8 18 -15 25 -15 7 0 18 7 25
15 10 12 10 18 0 30 -7 8 -18 15 -25 15 -7 0 -18 -7 -25 -15z"/>
<path d="M3592 5222 c-16 -11 -294 -669 -296 -702 -1 -19 5 -26 22 -28 26 -4
17 -23 198 411 99 236 122 302 113 313 -13 16 -19 17 -37 6z"/>
<path d="M1647 5023 c-20 -19 12 -57 217 -262 224 -224 255 -247 264 -197 3
14 -59 82 -219 242 -205 205 -243 237 -262 217z"/>
<path d="M3936 4701 c-225 -225 -258 -262 -247 -275 8 -9 21 -16 30 -16 9 0
130 114 270 254 254 254 279 286 226 294 -15 2 -91 -69 -279 -257z"/>
<path d="M2550 4675 c-18 -21 -5 -47 22 -43 26 3 37 36 16 49 -18 12 -24 11
-38 -6z"/>
<path d="M2584 4585 c-8 -21 2 -45 19 -45 21 0 38 25 31 44 -8 20 -43 21 -50
1z"/>
<path d="M1085 4534 c-11 -12 -12 -20 -5 -35 12 -22 33 -25 49 -5 25 30 -16
67 -44 40z"/>
<path d="M1187 4503 c-4 -3 -7 -16 -7 -29 0 -24 -20 -15 385 -174 71 -28 135
-48 142 -46 17 7 17 41 1 53 -11 8 -501 203 -511 203 -2 0 -7 -3 -10 -7z"/>
<path d="M4400 4379 c-146 -60 -271 -116 -279 -124 -17 -16 -8 -45 14 -45 14
0 435 169 528 211 21 10 27 19 25 38 -2 13 -7 26 -13 27 -5 2 -129 -46 -275
-107z"/>
<path d="M2120 4342 c-207 -93 -235 -115 -160 -125 70 -9 80 -26 80 -135 0
-86 -2 -94 -17 -87 -97 38 -215 28 -339 -29 -210 -97 -308 -321 -219 -502 34
-69 107 -136 181 -164 107 -42 273 -39 382 6 9 4 12 -16 12 -83 0 -81 3 -93
30 -136 61 -97 196 -152 400 -164 246 -14 400 43 403 150 1 45 -23 73 -75 89
-49 14 -99 0 -183 -53 -121 -76 -169 -83 -216 -33 l-24 26 -3 406 -3 407 37
75 c51 104 169 221 275 273 193 95 424 87 609 -20 73 -43 184 -150 218 -212
l23 -41 -55 0 c-49 0 -86 -16 -86 -36 0 -20 25 -44 44 -44 13 0 28 -6 34 -13
23 -27 335 -734 339 -769 7 -48 -45 -143 -125 -229 -106 -115 -202 -130 -282
-44 -53 57 -128 71 -187 35 -99 -60 -71 -206 52 -269 40 -21 67 -27 141 -29
262 -10 480 140 635 438 13 25 97 230 189 455 158 393 166 411 199 427 54 27
59 37 32 59 -21 17 -40 19 -205 19 -193 0 -222 -6 -214 -46 2 -12 14 -21 33
-24 16 -3 31 -12 33 -20 3 -19 -144 -375 -151 -364 -15 27 -147 355 -147 368
0 10 9 16 25 16 34 0 50 32 26 54 -14 13 -41 16 -142 16 l-124 0 -26 48 c-90
161 -261 287 -446 328 -56 12 -105 15 -191 12 -131 -6 -220 -31 -320 -90 -69
-41 -192 -155 -217 -203 -11 -19 -22 -35 -25 -35 -3 0 -6 79 -7 176 -2 173 -7
205 -37 203 -6 0 -99 -40 -206 -87z m-107 -438 l37 -7 0 -242 0 -242 -31 -7
c-108 -21 -206 20 -251 107 -30 59 -36 163 -13 224 23 59 88 130 140 154 44
20 61 22 118 13z"/>
<path d="M4020 4215 c-10 -12 -10 -18 0 -30 7 -8 18 -15 25 -15 7 0 18 7 25
15 10 12 10 18 0 30 -7 8 -18 15 -25 15 -7 0 -18 -7 -25 -15z"/>
<path d="M3942 4188 c-17 -17 -15 -36 6 -47 13 -7 23 -6 30 1 17 17 15 45 -4
52 -20 8 -18 8 -32 -6z"/>
<path d="M2915 4004 c-210 -34 -349 -105 -411 -210 -42 -72 -38 -74 149 -74
113 0 167 4 175 12 7 7 12 39 12 73 1 62 8 79 50 108 39 27 87 22 121 -12 27
-28 29 -34 29 -114 l0 -85 -72 -7 c-179 -16 -334 -79 -426 -172 -123 -123
-102 -235 52 -283 87 -28 303 7 417 65 l29 16 0 -64 c0 -53 5 -71 29 -109 45
-71 104 -101 212 -106 91 -5 148 8 234 51 136 67 217 196 153 241 -68 48 -168
-25 -168 -123 0 -58 -76 -93 -126 -57 -18 14 -19 32 -24 333 l-5 318 -28 58
c-49 99 -122 136 -277 142 -52 2 -108 1 -125 -1z m125 -508 l0 -125 -54 -6
c-68 -9 -107 0 -140 30 -35 32 -41 66 -21 109 21 44 62 75 130 98 88 31 85 35
85 -106z"/>
<path d="M1562 3220 c-24 -5 -93 -32 -152 -60 -137 -63 -176 -69 -268 -41 -84
25 -123 26 -168 5 -112 -53 -67 -218 69 -255 100 -27 200 10 370 135 173 129
225 143 267 73 19 -30 20 -52 20 -373 l0 -342 -35 -31 c-29 -25 -45 -31 -80
-31 -41 0 -51 5 -105 55 -68 62 -93 75 -151 75 -54 0 -97 -20 -139 -65 -44
-46 -79 -65 -122 -65 -38 0 -65 16 -123 71 -46 44 -81 59 -135 59 -55 0 -84
-13 -138 -63 -59 -55 -81 -67 -126 -67 -24 0 -47 10 -75 33 -22 17 -57 45 -77
61 -28 23 -46 30 -82 30 -40 1 -47 -2 -47 -18 0 -21 16 -32 56 -40 14 -3 54
-30 87 -60 109 -97 179 -97 286 0 33 30 70 57 83 60 43 11 87 -6 138 -52 66
-60 101 -78 155 -78 48 0 89 18 130 56 70 65 92 78 131 78 33 0 48 -8 105 -60
91 -82 153 -96 237 -54 l27 15 0 -175 c0 -169 -1 -175 -22 -190 -12 -9 -32
-16 -43 -16 -26 0 -45 -18 -45 -42 0 -17 17 -18 269 -18 226 0 270 2 281 15
20 24 -5 45 -55 45 -27 0 -47 6 -56 17 -12 13 -14 111 -14 542 l0 526 -23 58
c-47 116 -159 187 -305 193 -45 2 -102 -1 -125 -6z"/>
<path d="M2973 3070 c-12 -5 -39 -33 -61 -62 -22 -29 -49 -61 -60 -71 -29 -27
-89 -46 -143 -47 -52 0 -83 -18 -78 -46 3 -13 14 -20 34 -22 52 -6 55 -14 55
-152 l0 -128 -47 14 c-142 43 -320 -11 -444 -135 -79 -79 -110 -149 -110 -247
0 -79 13 -127 50 -185 35 -55 76 -89 155 -125 95 -43 263 -43 377 1 11 4 18 0
22 -14 5 -20 12 -21 189 -21 185 0 208 4 208 37 0 7 -15 16 -32 21 l-33 8 -5
578 c-5 557 -6 578 -24 592 -22 16 -23 16 -53 4z m-259 -616 c14 -5 16 -36 16
-244 l0 -237 -31 -7 c-99 -20 -195 18 -243 96 -33 55 -46 153 -27 210 36 110
126 188 217 188 29 0 59 -3 68 -6z"/>
<path d="M3164 2565 c-23 -36 -14 -58 36 -81 25 -12 51 -27 58 -33 16 -15 18
-502 2 -532 -7 -12 -21 -19 -40 -19 -15 0 -35 -3 -44 -6 -22 -9 -20 -51 3 -64
26 -14 456 -14 482 0 41 23 12 70 -43 70 -46 0 -48 10 -48 249 l0 225 46 43
c56 51 111 70 151 51 51 -24 53 -39 53 -374 0 -370 3 -389 83 -469 101 -101
224 -138 457 -139 172 -1 232 12 270 61 43 55 15 140 -54 163 -46 15 -79 5
-159 -48 -57 -38 -78 -46 -125 -49 -71 -5 -120 18 -144 67 -16 31 -18 68 -18
309 0 256 1 273 18 266 92 -38 145 -26 232 52 49 45 69 56 103 60 46 4 57 -1
146 -74 57 -47 115 -67 158 -57 46 11 96 40 128 74 39 42 76 60 119 60 29 0
47 -11 102 -59 111 -99 197 -102 297 -11 58 53 87 70 115 70 25 0 44 23 36 44
-15 38 -107 11 -176 -52 -56 -51 -78 -62 -126 -62 -34 0 -49 8 -102 56 -71 63
-94 74 -156 74 -56 0 -95 -20 -161 -81 -46 -43 -57 -49 -96 -49 -44 0 -101 31
-136 74 -26 31 -88 56 -139 56 -51 0 -116 -33 -157 -80 -46 -52 -116 -64 -172
-30 -29 17 -33 25 -33 62 0 133 -74 198 -223 198 -87 0 -154 -18 -259 -71
l-78 -39 0 46 0 47 -32 -9 c-61 -16 -208 -8 -272 15 -75 27 -82 26 -102 -4z"/>
<path d="M4474 1995 c-9 -24 3 -45 26 -45 30 0 58 -17 116 -70 46 -41 106 -70
145 -70 42 0 94 26 148 75 34 30 74 57 89 61 49 10 53 14 50 36 -2 18 -11 24
-35 26 -41 4 -85 -19 -151 -79 -49 -44 -58 -49 -102 -49 -44 0 -53 5 -102 49
-29 26 -67 56 -85 65 -40 20 -92 21 -99 1z"/>
<path d="M5118 1999 c-22 -12 -23 -42 -2 -60 31 -26 70 25 44 56 -14 17 -19
18 -42 4z"/>
<path d="M507 1848 c-7 -21 12 -48 35 -48 11 0 41 -21 67 -46 64 -65 80 -74
124 -74 50 0 83 18 133 74 58 64 82 63 156 -11 51 -50 61 -56 100 -57 39 -1
43 1 43 24 0 19 -6 26 -25 28 -14 2 -53 30 -87 63 -55 53 -66 59 -103 59 -52
0 -84 -17 -140 -74 -61 -63 -88 -62 -149 3 -25 26 -56 53 -68 60 -29 15 -80
14 -86 -1z"/>
<path d="M1210 1735 c-26 -31 13 -82 44 -56 19 16 21 42 4 59 -16 16 -33 15
-48 -3z"/>
<path d="M3573 1454 c-9 -24 10 -49 38 -49 20 0 24 5 24 30 0 25 -4 30 -28 33
-18 2 -29 -2 -34 -14z"/>
<path d="M2114 1435 c-10 -25 4 -45 32 -45 19 0 43 -17 86 -60 74 -74 119 -90
185 -65 26 10 57 33 78 60 40 49 83 70 120 61 14 -4 46 -29 72 -56 95 -101
167 -101 269 0 84 82 102 81 192 -4 105 -98 170 -97 267 5 27 28 60 53 76 56
57 11 63 63 7 63 -40 0 -64 -14 -128 -75 -31 -29 -65 -55 -77 -59 -30 -10 -74
15 -113 64 -40 50 -77 70 -131 70 -50 0 -96 -26 -134 -76 -31 -40 -84 -67
-112 -57 -10 3 -45 32 -79 64 -66 63 -94 74 -155 66 -32 -4 -54 -18 -104 -66
-54 -52 -69 -61 -100 -61 -31 0 -45 8 -92 56 -30 30 -66 60 -80 65 -36 14 -73
11 -79 -6z"/>
<path d="M3685 1426 c-20 -15 -17 -44 7 -59 12 -8 21 -7 32 2 36 30 -1 85 -39
57z"/>
<path d="M4006 1024 c-9 -8 -16 -19 -16 -24 0 -11 29 -40 40 -40 11 0 40 29
40 40 0 11 -29 40 -40 40 -5 0 -16 -7 -24 -16z"/>
<path d="M4117 998 c-6 -17 11 -48 26 -48 6 0 37 -27 69 -60 49 -52 62 -60 93
-60 31 0 46 9 99 60 35 33 66 60 71 60 5 0 36 -27 71 -60 61 -58 103 -76 119
-50 10 16 -5 50 -21 50 -8 0 -38 24 -67 54 -29 30 -65 58 -81 62 -39 9 -86
-15 -127 -65 -50 -63 -62 -63 -130 8 -45 48 -64 61 -87 61 -17 0 -32 -6 -35
-12z"/>
<path d="M1313 894 c-8 -22 10 -49 32 -49 22 0 40 27 32 49 -8 21 -56 21 -64
0z"/>
<path d="M1433 884 c-8 -22 9 -48 36 -52 11 -2 40 -26 64 -53 51 -61 83 -79
138 -79 39 0 48 5 106 65 83 86 99 86 179 1 43 -46 68 -64 92 -68 44 -6 102
16 130 49 13 15 34 40 47 56 39 45 75 38 131 -28 32 -36 62 -60 92 -72 42 -16
45 -16 58 1 17 24 7 45 -25 52 -14 4 -53 35 -86 70 -60 63 -61 64 -115 64 -54
0 -55 0 -115 -65 -82 -87 -102 -88 -174 -5 -78 89 -154 99 -218 28 -100 -112
-111 -114 -192 -28 -70 74 -133 102 -148 64z"/>
<path d="M3512 563 c-18 -9 -49 -34 -67 -56 -46 -53 -85 -78 -110 -70 -11 3
-45 27 -75 53 -69 59 -89 70 -134 70 -31 0 -47 -10 -112 -70 -48 -45 -84 -70
-98 -70 -14 0 -52 24 -94 59 -90 75 -152 92 -152 41 0 -13 13 -25 38 -35 20
-9 55 -33 77 -54 61 -58 85 -71 133 -71 40 0 49 5 117 70 41 38 83 70 94 70
11 0 39 -16 63 -35 75 -61 131 -95 156 -95 35 0 60 16 134 86 36 35 73 64 81
64 9 0 35 -16 59 -35 111 -90 162 -112 188 -80 16 19 6 32 -36 50 -19 8 -59
35 -88 59 -79 68 -116 78 -174 49z"/>
</g>
</svg>
